# xmcd
#
# Track frame offsets: 
#        150
#        24332
#        44186
#        66587
#        98519
#        119057
#        136999
#        149635
#        164605
#        182927
#        205492
#        250941
#
# Disc length: 4471 seconds
#
# Revision: 1
# Processed by: cddbd v1.5.2PL0 Copyright (c) Steve Scherf et al.
# Submitted via: ExactAudioCopy v0.95b4
#
DISCID=c411750c
DTITLE=New Composers - Advanced Indigo
DYEAR=2004
DGENRE=Electronic
TTITLE0=Phantom Ships and Strange Voices
TTITLE1=Invisible Assailants
TTITLE2=Encounters With Aliens
TTITLE3=Spantaneous Human Combustion
TTITLE4=Levitation Flight
TTITLE5=Lightning Pictures
TTITLE6=Miraculous Provisions
TTITLE7=Electric People
TTITLE8=Practical Witchcraft
TTITLE9=Spectral Mutilators
TTITLE10=Disk Of Ice
TTITLE11=Data
EXTD=YEAR: 2004
EXTT0=
EXTT1=
EXTT2=
EXTT3=
EXTT4=
EXTT5=
EXTT6=
EXTT7=
EXTT8=
EXTT9=
EXTT10=
EXTT11=
PLAYORDER=
